<svg width="20" height="20" viewBox="0 0 20 20" fill="none" xmlns="http://www.w3.org/2000/svg">
<path d="M11.76 18.8799V10.7799H14.84L15.3 7.61988H11.76V5.59988C11.76 5.09322 11.8733 4.71988 12.1 4.47988C12.3667 4.19988 12.8467 4.05988 13.54 4.05988H15.42V1.23988C15.2067 1.21322 14.8733 1.18655 14.42 1.15988C13.8333 1.13322 13.2467 1.11988 12.66 1.11988C11.7533 1.11988 10.9533 1.27988 10.26 1.59988C9.56667 1.91988 9.03 2.39322 8.65 3.01988C8.27 3.64655 8.08 4.39988 8.08 5.27988V7.61988H5V10.7799H8.08V18.8799H11.76Z" fill="#035C36"/>
</svg>
