<svg width="71" height="71" viewBox="0 0 71 71" fill="none" xmlns="http://www.w3.org/2000/svg">
<g clip-path="url(#clip0_58_58)">
<g filter="url(#filter0_f_58_58)">
<path d="M22.0973 55.9945L23.0029 56.53C26.8067 58.7831 31.168 59.975 35.6156 59.977H35.6249C49.2835 59.977 60.3993 48.8849 60.405 35.2517C60.4074 28.6452 57.8323 22.4326 53.1537 17.7593C50.859 15.4546 48.129 13.627 45.1219 12.3824C42.1147 11.1378 38.8901 10.5009 35.6346 10.5085C21.9656 10.5085 10.8493 21.5995 10.8445 35.2319C10.8377 39.887 12.1511 44.4489 14.6328 48.3903L15.2224 49.3253L12.7186 58.4487L22.0973 55.9945ZM5.56006 65.5166L9.79009 50.1019C7.18132 45.5908 5.80886 40.473 5.81048 35.2299C5.81737 18.8274 19.1911 5.4834 35.6253 5.4834C43.6003 5.48744 51.0859 8.58504 56.7155 14.2079C62.3451 19.8309 65.4426 27.3049 65.4398 35.2537C65.4325 51.6549 52.0568 65.0014 35.6249 65.0014H35.612C30.6226 64.9994 25.7199 63.7501 21.365 61.38L5.56006 65.5166Z" fill="#B3B3B3"/>
</g>
<path d="M5.25391 65.211L9.48394 49.7962C6.87068 45.2742 5.49802 40.1445 5.50433 34.9242C5.51122 18.5218 18.8849 5.17773 35.3192 5.17773C43.2942 5.18178 50.7797 8.27937 56.4094 13.9023C62.039 19.5252 65.1364 26.9992 65.1336 34.9481C65.1263 51.3493 51.7506 64.6957 35.3188 64.6957H35.3058C30.3164 64.6937 25.4137 63.4444 21.0589 61.0744L5.25391 65.211Z" fill="white"/>
<path d="M35.3283 10.2032C21.6592 10.2032 10.543 21.2941 10.5381 34.9265C10.5314 39.5816 11.8448 44.1435 14.3265 48.0849L14.916 49.0204L12.4122 58.1437L21.7913 55.6892L22.697 56.2247C26.5007 58.4778 30.862 59.6693 35.3097 59.6717H35.319C48.9775 59.6717 60.0938 48.5796 60.099 34.9463C60.1094 31.6969 59.4738 28.4777 58.2291 25.4751C56.9844 22.4725 55.1553 19.7462 52.8477 17.454C50.553 15.1492 47.823 13.3216 44.8157 12.077C41.8085 10.8324 38.5838 10.1955 35.3283 10.2032Z" fill="url(#paint0_linear_58_58)"/>
<path fill-rule="evenodd" clip-rule="evenodd" d="M27.8674 22.4884C27.3091 21.2504 26.7215 21.2253 26.1911 21.2039L24.7631 21.1865C24.2663 21.1865 23.4591 21.3726 22.7767 22.1167C22.0944 22.8609 20.1692 24.6594 20.1692 28.3176C20.1692 31.9757 22.8387 35.5105 23.2107 36.0072C23.5827 36.5038 28.3642 44.25 35.9365 47.2303C42.229 49.7071 43.5095 49.2145 44.8759 49.0908C46.2423 48.967 49.2834 47.2922 49.9038 45.556C50.5242 43.8197 50.5246 42.3322 50.3386 42.0212C50.1526 41.7102 49.6558 41.5253 48.9102 41.1532C48.1646 40.7812 44.5027 38.9826 43.8199 38.7343C43.1371 38.486 42.6407 38.3626 42.1435 39.1068C41.6463 39.851 40.2204 41.5249 39.7856 42.0212C39.3508 42.5174 38.9168 42.5797 38.1712 42.208C37.4256 41.8363 35.0268 41.0509 32.1805 38.5179C29.9661 36.5471 28.4712 34.1132 28.036 33.3694C27.6008 32.6257 27.9898 32.2228 28.3634 31.8524C28.6977 31.5191 29.1082 30.984 29.4814 30.5501C29.8546 30.1161 29.9774 29.8059 30.2254 29.3105C30.4734 28.815 30.3498 28.3799 30.1634 28.0082C29.977 27.6365 28.5296 23.959 27.8674 22.4884Z" fill="white"/>
</g>
<defs>
<filter id="filter0_f_58_58" x="-1.50194" y="-1.5786" width="74.0036" height="74.1572" filterUnits="userSpaceOnUse" color-interpolation-filters="sRGB">
<feFlood flood-opacity="0" result="BackgroundImageFix"/>
<feBlend mode="normal" in="SourceGraphic" in2="BackgroundImageFix" result="shape"/>
<feGaussianBlur stdDeviation="3.531" result="effect1_foregroundBlur_58_58"/>
</filter>
<linearGradient id="paint0_linear_58_58" x1="34.8141" y1="13.1718" x2="35.0644" y2="55.4457" gradientUnits="userSpaceOnUse">
<stop stop-color="#57D163"/>
<stop offset="1" stop-color="#23B33A"/>
</linearGradient>
<clipPath id="clip0_58_58">
<rect width="71" height="71" fill="white"/>
</clipPath>
</defs>
</svg>
