<svg width="20" height="20" viewBox="0 0 20 20" fill="none" xmlns="http://www.w3.org/2000/svg">
<g clip-path="url(#clip0_1_99)">
<path d="M6.36027 0.779726C5.34694 0.779726 4.40694 1.03306 3.54027 1.53973C2.70027 2.03306 2.03361 2.69973 1.54027 3.53973C1.03361 4.40639 0.780273 5.34639 0.780273 6.35973V13.6397C0.780273 14.6531 1.03361 15.5931 1.54027 16.4597C2.03361 17.2997 2.70027 17.9664 3.54027 18.4597C4.40694 18.9664 5.34694 19.2197 6.36027 19.2197H13.6403C14.6536 19.2197 15.5936 18.9664 16.4603 18.4597C17.3003 17.9664 17.9669 17.2997 18.4603 16.4597C18.9669 15.5931 19.2203 14.6531 19.2203 13.6397V6.35973C19.2203 5.34639 18.9669 4.40639 18.4603 3.53973C17.9669 2.69973 17.3003 2.03306 16.4603 1.53973C15.5936 1.03306 14.6536 0.779726 13.6403 0.779726H6.36027ZM14.8603 4.17973C15.1269 4.17973 15.3536 4.27306 15.5403 4.45973C15.7269 4.64639 15.8203 4.87306 15.8203 5.13973C15.8203 5.40639 15.7269 5.63639 15.5403 5.82973C15.3536 6.02306 15.1269 6.11973 14.8603 6.11973C14.5936 6.11973 14.3636 6.02306 14.1703 5.82973C13.9769 5.63639 13.8803 5.40639 13.8803 5.13973C13.8803 4.87306 13.9769 4.64639 14.1703 4.45973C14.3636 4.27306 14.5936 4.17973 14.8603 4.17973ZM10.0003 5.13973C10.8803 5.13973 11.6936 5.35639 12.4403 5.78973C13.1869 6.22306 13.7769 6.81306 14.2103 7.55973C14.6436 8.30639 14.8603 9.11973 14.8603 9.99973C14.8603 10.8797 14.6436 11.6897 14.2103 12.4297C13.7769 13.1697 13.1869 13.7564 12.4403 14.1897C11.6936 14.6231 10.8803 14.8397 10.0003 14.8397C9.12027 14.8397 8.31027 14.6231 7.57027 14.1897C6.83027 13.7564 6.24361 13.1697 5.81027 12.4297C5.37694 11.6897 5.16027 10.8797 5.16027 9.99973C5.16027 9.11973 5.37694 8.30639 5.81027 7.55973C6.24361 6.81306 6.83027 6.22306 7.57027 5.78973C8.31027 5.35639 9.12027 5.13973 10.0003 5.13973ZM10.0003 6.59973C9.58694 6.59973 9.15361 6.68639 8.70027 6.85973C8.26027 7.05973 7.89027 7.30973 7.59027 7.60973C7.29027 7.90973 7.04694 8.27306 6.86027 8.69973C6.68694 9.15306 6.60027 9.58639 6.60027 9.99973C6.60027 10.4131 6.68694 10.8464 6.86027 11.2997C7.06027 11.7397 7.30694 12.1064 7.60027 12.3997C7.89361 12.6931 8.26027 12.9397 8.70027 13.1397C9.15361 13.3131 9.58694 13.3997 10.0003 13.3997C10.4136 13.3997 10.8469 13.3131 11.3003 13.1397C11.7269 12.9531 12.0903 12.7097 12.3903 12.4097C12.6903 12.1097 12.9403 11.7397 13.1403 11.2997C13.3136 10.8464 13.4003 10.4131 13.4003 9.99973C13.4003 9.58639 13.3136 9.15306 13.1403 8.69973C12.9669 8.27306 12.7236 7.90306 12.4103 7.58973C12.0969 7.27639 11.7269 7.03306 11.3003 6.85973C10.8469 6.68639 10.4136 6.59973 10.0003 6.59973Z" fill="#035C36"/>
</g>
<defs>
<clipPath id="clip0_1_99">
<rect width="20" height="20" fill="white" transform="matrix(1 0 0 -1 0 20)"/>
</clipPath>
</defs>
</svg>
